<svg width="371" height="255" viewBox="0 0 371 255" fill="none" xmlns="http://www.w3.org/2000/svg">
<g clip-path="url(#clip0_33_2)">
<g filter="url(#filter0_d_33_2)">
<path d="M217.892 186.088C219.449 184.137 221.81 183 224.307 183V183C231.184 183 235.011 190.951 230.722 196.326L186.964 251.162C185.407 253.113 183.046 254.25 180.549 254.25V254.25C173.672 254.25 169.845 246.299 174.134 240.924L217.892 186.088Z" fill="#12D7A7"/>
</g>
<path d="M169.386 175.092C169.395 174.827 169.505 174.575 169.693 174.387V174.387C170.367 173.713 171.519 174.214 171.484 175.168L171.186 183.479C171.176 183.745 171.067 183.996 170.879 184.184V184.184C170.205 184.858 169.053 184.357 169.087 183.404L169.386 175.092Z" fill="#12D7A7"/>
<path d="M225.533 179.098C225.71 178.899 225.955 178.775 226.219 178.751V178.751C227.169 178.661 227.736 179.781 227.102 180.494L221.572 186.707C221.396 186.905 221.151 187.029 220.886 187.054V187.054C219.937 187.143 219.37 186.023 220.004 185.31L225.533 179.098Z" fill="#12D7A7"/>
<path d="M239.098 169.654C239.44 169.557 239.638 170.029 239.329 170.205V170.205C239.278 170.234 239.236 170.278 239.209 170.332L238.931 170.888C238.664 171.421 238.704 172.056 239.034 172.551L239.18 172.77C239.626 173.44 239.423 174.346 238.733 174.76V174.76C237.725 175.365 236.463 174.543 236.609 173.377L236.957 170.594C236.983 170.385 237.131 170.213 237.333 170.155L239.098 169.654Z" fill="#12D7A7"/>
<path d="M225.692 165.7C225.721 165.692 225.751 165.686 225.781 165.683C226.315 165.633 226.538 166.349 226.069 166.61L223.447 168.074C223.071 168.283 222.954 168.768 223.192 169.126C223.566 169.687 223.054 170.413 222.4 170.25L221.946 170.136C221.537 170.034 221.25 169.667 221.25 169.245L221.25 168.438C221.25 167.565 221.829 166.798 222.669 166.559L225.692 165.7Z" fill="#12D7A7"/>
<path d="M230.064 165.027C229.783 165.19 229.514 164.802 229.763 164.595V164.595C229.799 164.566 229.826 164.528 229.842 164.485L230.067 163.891C230.268 163.358 230.036 162.76 229.528 162.502V162.502C228.819 162.142 228.704 161.175 229.309 160.659L229.85 160.197C230.839 159.353 232.368 159.99 232.466 161.286L232.614 163.233C232.628 163.418 232.534 163.595 232.373 163.689L230.064 165.027Z" fill="#12D7A7"/>
<path d="M247.826 162.252C247.791 162.272 247.755 162.29 247.718 162.306C247.06 162.589 246.621 162.089 247.149 161.659L250.107 159.249C250.53 158.904 250.568 158.445 250.189 158.252C249.595 157.951 250.074 157.11 250.929 156.953L251.525 156.843C252.06 156.744 252.502 156.923 252.596 157.276L252.778 157.953C252.973 158.685 252.42 159.59 251.421 160.169L247.826 162.252Z" fill="#12D7A7"/>
<path d="M230.033 179.098C230.21 178.899 230.455 178.775 230.719 178.751V178.751C231.669 178.661 232.236 179.781 231.602 180.494L226.072 186.707C225.896 186.905 225.651 187.029 225.386 187.054V187.054C224.437 187.143 223.87 186.023 224.504 185.31L230.033 179.098Z" fill="#12D7A7"/>
<path d="M236.033 183.598C236.21 183.399 236.455 183.275 236.719 183.251V183.251C237.669 183.161 238.236 184.281 237.602 184.994L232.072 191.207C231.896 191.405 231.651 191.529 231.386 191.554V191.554C230.437 191.643 229.87 190.523 230.504 189.81L236.033 183.598Z" fill="#12D7A7"/>
<path d="M231.533 182.098C231.71 181.899 231.955 181.775 232.219 181.751V181.751C233.169 181.661 233.736 182.781 233.102 183.494L227.572 189.707C227.396 189.905 227.151 190.029 226.886 190.054V190.054C225.937 190.143 225.37 189.023 226.004 188.31L231.533 182.098Z" fill="#12D7A7"/>
<g filter="url(#filter1_d_33_2)">
<path d="M96.36 109.04C96.36 112.64 95.46 116 93.66 119.12C91.86 122.12 89.46 124.58 86.46 126.5C83.46 128.3 80.1 129.2 76.38 129.2H55.14C54.54 129.2 53.94 129.44 53.34 129.92C52.86 130.28 52.62 130.76 52.62 131.36V138.92C52.62 139.52 52.86 140.06 53.34 140.54C53.94 141.02 54.54 141.26 55.14 141.26H76.38C78.66 141.26 80.58 142.04 82.14 143.6C83.82 145.16 84.66 147.14 84.66 149.54V154.22C84.66 156.5 83.82 158.48 82.14 160.16C80.58 161.72 78.66 162.5 76.38 162.5H51.36C45.84 162.5 41.1 160.58 37.14 156.74C33.18 152.78 31.2 147.98 31.2 142.34V89.42C31.2 85.7 32.1 82.34 33.9 79.34C35.82 76.34 38.28 73.94 41.28 72.14C44.28 70.22 47.64 69.26 51.36 69.26H76.38C80.1 69.26 83.46 70.22 86.46 72.14C89.46 73.94 91.86 76.34 93.66 79.34C95.46 82.34 96.36 85.7 96.36 89.42V109.04ZM75.12 105.44V93.2C75.12 92.48 74.82 91.88 74.22 91.4C73.74 90.92 73.2 90.68 72.6 90.68H55.14C54.54 90.68 53.94 90.92 53.34 91.4C52.86 91.88 52.62 92.48 52.62 93.2V105.44C52.62 105.92 52.86 106.4 53.34 106.88C53.94 107.36 54.54 107.6 55.14 107.6H72.6C73.2 107.6 73.74 107.36 74.22 106.88C74.82 106.4 75.12 105.92 75.12 105.44ZM190.565 183.02C190.565 185.3 189.785 187.22 188.225 188.78C186.665 190.46 184.745 191.3 182.465 191.3H177.425C175.145 191.3 173.225 190.46 171.665 188.78C170.105 187.22 169.325 185.3 169.325 183.02V164.84C169.325 163.28 168.485 162.5 166.805 162.5H145.565C140.045 162.5 135.305 160.58 131.345 156.74C127.385 152.78 125.405 147.98 125.405 142.34V89.42C125.405 85.7 126.305 82.34 128.105 79.34C130.025 76.22 132.485 73.76 135.485 71.96C138.485 70.16 141.845 69.26 145.565 69.26H170.585C174.305 69.26 177.665 70.16 180.665 71.96C183.665 73.76 186.065 76.22 187.865 79.34C189.665 82.34 190.565 85.7 190.565 89.42V183.02ZM169.325 138.92V93.2C169.325 91.52 168.485 90.68 166.805 90.68H149.345C147.665 90.68 146.825 91.52 146.825 93.2V138.92C146.825 140.48 147.665 141.26 149.345 141.26H166.805C168.485 141.26 169.325 140.48 169.325 138.92ZM246.789 52.34C246.789 56.06 245.409 59.3 242.649 62.06C240.009 64.7 236.889 66.02 233.289 66.02C229.569 66.02 226.329 64.7 223.569 62.06C220.929 59.3 219.609 56.06 219.609 52.34C219.609 48.74 220.929 45.62 223.569 42.98C226.329 40.22 229.569 38.84 233.289 38.84C236.889 38.84 240.009 40.22 242.649 42.98C245.409 45.62 246.789 48.74 246.789 52.34ZM243.909 154.22C243.909 156.5 243.069 158.48 241.389 160.16C239.829 161.72 237.909 162.5 235.629 162.5H230.769C228.489 162.5 226.509 161.72 224.829 160.16C223.269 158.48 222.489 156.5 222.489 154.22V79.52C222.489 77.24 223.269 75.32 224.829 73.76C226.509 72.08 228.489 71.24 230.769 71.24H235.629C237.909 71.24 239.829 72.08 241.389 73.76C243.069 75.32 243.909 77.24 243.909 79.52V154.22ZM340.83 142.34C340.83 147.98 338.85 152.78 334.89 156.74C331.05 160.58 326.37 162.5 320.85 162.5H295.83C290.31 162.5 285.57 160.58 281.61 156.74C277.65 152.78 275.67 147.98 275.67 142.34V89.42C275.67 85.7 276.57 82.34 278.37 79.34C280.29 76.22 282.75 73.76 285.75 71.96C288.75 70.16 292.11 69.26 295.83 69.26H317.07C318.75 69.26 319.59 68.54 319.59 67.1V49.1C319.59 46.7 320.37 44.72 321.93 43.16C323.49 41.6 325.41 40.82 327.69 40.82H332.73C335.01 40.82 336.93 41.6 338.49 43.16C340.05 44.72 340.83 46.7 340.83 49.1V142.34ZM319.59 138.92V93.2C319.59 91.52 318.75 90.68 317.07 90.68H299.61C299.01 90.68 298.41 90.92 297.81 91.4C297.33 91.88 297.09 92.48 297.09 93.2V138.92C297.09 139.52 297.33 140.06 297.81 140.54C298.41 141.02 299.01 141.26 299.61 141.26H317.07C318.75 141.26 319.59 140.48 319.59 138.92Z" fill="#F5F5F1"/>
</g>
<path d="M176.886 169.092C176.895 168.827 177.005 168.575 177.193 168.387V168.387C177.867 167.713 179.019 168.214 178.984 169.168L178.686 177.479C178.676 177.745 178.567 177.996 178.379 178.184V178.184C177.705 178.858 176.553 178.357 176.587 177.404L176.886 169.092Z" fill="#12D7A7"/>
<path d="M181.386 167.592C181.395 167.327 181.505 167.075 181.693 166.887V166.887C182.367 166.213 183.519 166.714 183.484 167.668L183.186 175.979C183.176 176.245 183.067 176.496 182.879 176.684V176.684C182.205 177.358 181.053 176.857 181.087 175.904L181.386 167.592Z" fill="#12D7A7"/>
<path d="M185.886 170.592C185.895 170.327 186.005 170.075 186.193 169.887V169.887C186.867 169.213 188.019 169.714 187.984 170.668L187.686 178.979C187.676 179.245 187.567 179.496 187.379 179.684V179.684C186.705 180.358 185.553 179.857 185.587 178.904L185.886 170.592Z" fill="#12D7A7"/>
<path d="M178.386 172.092C178.395 171.827 178.505 171.575 178.693 171.387V171.387C179.367 170.713 180.519 171.214 180.484 172.168L180.186 180.479C180.176 180.745 180.067 180.996 179.879 181.184V181.184C179.205 181.858 178.053 181.357 178.087 180.404L178.386 172.092Z" fill="#12D7A7"/>
<path d="M172.386 172.092C172.395 171.827 172.505 171.575 172.693 171.387V171.387C173.367 170.713 174.519 171.214 174.484 172.168L174.186 180.479C174.176 180.745 174.067 180.996 173.879 181.184V181.184C173.205 181.858 172.053 181.357 172.087 180.404L172.386 172.092Z" fill="#12D7A7"/>
<g filter="url(#filter2_d_33_2)">
<path d="M235.553 171.17C234.377 173.256 231.35 173.191 230.265 171.056L222.263 155.315C221.236 153.294 222.736 150.908 225.002 150.956L241.673 151.314C243.94 151.363 245.335 153.811 244.222 155.786L235.553 171.17Z" fill="#12D7A7"/>
</g>
<g filter="url(#filter3_d_33_2)">
<path d="M235.5 31.5V24" stroke="#12D7A7" stroke-width="4.5" stroke-linecap="round"/>
</g>
<g filter="url(#filter4_d_33_2)">
<path d="M252 43.5L261 40.5" stroke="#12D7A7" stroke-width="4.5" stroke-linecap="round"/>
</g>
<g filter="url(#filter5_d_33_2)">
<path d="M244.5 37.0767L249 32.7883L253.5 28.5" stroke="#12D7A7" stroke-width="4.5" stroke-linecap="round"/>
</g>
<rect x="169.5" y="175.5" width="21" height="76.5" rx="10.5" fill="#12D7A7"/>
<g filter="url(#filter6_d_33_2)">
<circle cx="233.25" cy="51.75" r="14.25" fill="#12D7A7"/>
</g>
</g>
<defs>
<filter id="filter0_d_33_2" x="166.327" y="183" width="72.2029" height="83.25" filterUnits="userSpaceOnUse" color-interpolation-filters="sRGB">
<feFlood flood-opacity="0" result="BackgroundImageFix"/>
<feColorMatrix in="SourceAlpha" type="matrix" values="0 0 0 0 0 0 0 0 0 0 0 0 0 0 0 0 0 0 127 0" result="hardAlpha"/>
<feOffset dy="6"/>
<feGaussianBlur stdDeviation="3"/>
<feComposite in2="hardAlpha" operator="out"/>
<feColorMatrix type="matrix" values="0 0 0 0 0 0 0 0 0 0 0 0 0 0 0 0 0 0 0.25 0"/>
<feBlend mode="normal" in2="BackgroundImageFix" result="effect1_dropShadow_33_2"/>
<feBlend mode="normal" in="SourceGraphic" in2="effect1_dropShadow_33_2" result="shape"/>
</filter>
<filter id="filter1_d_33_2" x="25.2" y="38.84" width="321.63" height="164.46" filterUnits="userSpaceOnUse" color-interpolation-filters="sRGB">
<feFlood flood-opacity="0" result="BackgroundImageFix"/>
<feColorMatrix in="SourceAlpha" type="matrix" values="0 0 0 0 0 0 0 0 0 0 0 0 0 0 0 0 0 0 127 0" result="hardAlpha"/>
<feOffset dy="6"/>
<feGaussianBlur stdDeviation="3"/>
<feComposite in2="hardAlpha" operator="out"/>
<feColorMatrix type="matrix" values="0 0 0 0 0 0 0 0 0 0 0 0 0 0 0 0 0 0 0.25 0"/>
<feBlend mode="normal" in2="BackgroundImageFix" result="effect1_dropShadow_33_2"/>
<feBlend mode="normal" in="SourceGraphic" in2="effect1_dropShadow_33_2" result="shape"/>
</filter>
<filter id="filter2_d_33_2" x="215.934" y="150.956" width="34.6791" height="33.7411" filterUnits="userSpaceOnUse" color-interpolation-filters="sRGB">
<feFlood flood-opacity="0" result="BackgroundImageFix"/>
<feColorMatrix in="SourceAlpha" type="matrix" values="0 0 0 0 0 0 0 0 0 0 0 0 0 0 0 0 0 0 127 0" result="hardAlpha"/>
<feOffset dy="6"/>
<feGaussianBlur stdDeviation="3"/>
<feComposite in2="hardAlpha" operator="out"/>
<feColorMatrix type="matrix" values="0 0 0 0 0 0 0 0 0 0 0 0 0 0 0 0 0 0 0.25 0"/>
<feBlend mode="normal" in2="BackgroundImageFix" result="effect1_dropShadow_33_2"/>
<feBlend mode="normal" in="SourceGraphic" in2="effect1_dropShadow_33_2" result="shape"/>
</filter>
<filter id="filter3_d_33_2" x="227.25" y="21.75" width="16.5" height="24" filterUnits="userSpaceOnUse" color-interpolation-filters="sRGB">
<feFlood flood-opacity="0" result="BackgroundImageFix"/>
<feColorMatrix in="SourceAlpha" type="matrix" values="0 0 0 0 0 0 0 0 0 0 0 0 0 0 0 0 0 0 127 0" result="hardAlpha"/>
<feOffset dy="6"/>
<feGaussianBlur stdDeviation="3"/>
<feComposite in2="hardAlpha" operator="out"/>
<feColorMatrix type="matrix" values="0 0 0 0 0 0 0 0 0 0 0 0 0 0 0 0 0 0 0.25 0"/>
<feBlend mode="normal" in2="BackgroundImageFix" result="effect1_dropShadow_33_2"/>
<feBlend mode="normal" in="SourceGraphic" in2="effect1_dropShadow_33_2" result="shape"/>
</filter>
<filter id="filter4_d_33_2" x="243.749" y="38.2494" width="25.5012" height="19.5012" filterUnits="userSpaceOnUse" color-interpolation-filters="sRGB">
<feFlood flood-opacity="0" result="BackgroundImageFix"/>
<feColorMatrix in="SourceAlpha" type="matrix" values="0 0 0 0 0 0 0 0 0 0 0 0 0 0 0 0 0 0 127 0" result="hardAlpha"/>
<feOffset dy="6"/>
<feGaussianBlur stdDeviation="3"/>
<feComposite in2="hardAlpha" operator="out"/>
<feColorMatrix type="matrix" values="0 0 0 0 0 0 0 0 0 0 0 0 0 0 0 0 0 0 0.25 0"/>
<feBlend mode="normal" in2="BackgroundImageFix" result="effect1_dropShadow_33_2"/>
<feBlend mode="normal" in="SourceGraphic" in2="effect1_dropShadow_33_2" result="shape"/>
</filter>
<filter id="filter5_d_33_2" x="236.25" y="26.25" width="25.5" height="25.0767" filterUnits="userSpaceOnUse" color-interpolation-filters="sRGB">
<feFlood flood-opacity="0" result="BackgroundImageFix"/>
<feColorMatrix in="SourceAlpha" type="matrix" values="0 0 0 0 0 0 0 0 0 0 0 0 0 0 0 0 0 0 127 0" result="hardAlpha"/>
<feOffset dy="6"/>
<feGaussianBlur stdDeviation="3"/>
<feComposite in2="hardAlpha" operator="out"/>
<feColorMatrix type="matrix" values="0 0 0 0 0 0 0 0 0 0 0 0 0 0 0 0 0 0 0.25 0"/>
<feBlend mode="normal" in2="BackgroundImageFix" result="effect1_dropShadow_33_2"/>
<feBlend mode="normal" in="SourceGraphic" in2="effect1_dropShadow_33_2" result="shape"/>
</filter>
<filter id="filter6_d_33_2" x="213" y="37.5" width="40.5" height="40.5" filterUnits="userSpaceOnUse" color-interpolation-filters="sRGB">
<feFlood flood-opacity="0" result="BackgroundImageFix"/>
<feColorMatrix in="SourceAlpha" type="matrix" values="0 0 0 0 0 0 0 0 0 0 0 0 0 0 0 0 0 0 127 0" result="hardAlpha"/>
<feOffset dy="6"/>
<feGaussianBlur stdDeviation="3"/>
<feComposite in2="hardAlpha" operator="out"/>
<feColorMatrix type="matrix" values="0 0 0 0 0 0 0 0 0 0 0 0 0 0 0 0 0 0 0.25 0"/>
<feBlend mode="normal" in2="BackgroundImageFix" result="effect1_dropShadow_33_2"/>
<feBlend mode="normal" in="SourceGraphic" in2="effect1_dropShadow_33_2" result="shape"/>
</filter>
<clipPath id="clip0_33_2">
<rect width="370.5" height="255" fill="white"/>
</clipPath>
</defs>
</svg>
